<?xml version="1.0" encoding="UTF-8" standalone="no"?>
<!DOCTYPE svg PUBLIC "-//W3C//DTD SVG 1.1//EN" "http://www.w3.org/Graphics/SVG/1.1/DTD/svg11.dtd">
<svg width="100%" height="100%" viewBox="0 0 473 514" version="1.1" xmlns="http://www.w3.org/2000/svg" xmlns:xlink="http://www.w3.org/1999/xlink" xml:space="preserve" xmlns:serif="http://www.serif.com/" style="fill-rule:evenodd;clip-rule:evenodd;stroke-miterlimit:10;">
    <g transform="matrix(1.4024,0,0,1.39733,375.95,3.61095e-15)">
        <path d="M0,91.622L68.717,91.622L-22.905,0L-22.905,68.717C-22.905,81.314 -12.598,91.622 0,91.622" style="fill:rgb(164,193,208);fill-rule:nonzero;"/>
    </g>
    <g transform="matrix(0,-512.101,-513.962,0,280.264,512.293)">
        <path d="M1,0.312C1,0.347 0.972,0.375 0.937,0.375L0.063,0.375C0.028,0.375 -0,0.347 -0,0.312L-0,-0.313C-0,-0.347 0.028,-0.375 0.063,-0.375L0.75,-0.375L1,-0.125L1,0.312Z" style="fill:url(#_Linear1);fill-rule:nonzero;"/>
    </g>
    <g transform="matrix(0,-253.685,-254.607,0,192.738,422.905)">
        <path d="M1.027,0.645C1.027,0.707 0.977,0.757 0.915,0.757L0.381,0.757C0.32,0.757 0.27,0.707 0.27,0.645L0.27,-0.645C0.27,-0.707 0.32,-0.757 0.381,-0.757L0.915,-0.757C0.977,-0.757 1.027,-0.707 1.027,-0.645L1.027,0.645Z" style="fill:url(#_Linear2);fill-rule:nonzero;"/>
    </g>
    <g transform="matrix(4.17257,0,0,4.15747,-477.15,-189.621)">
        <g transform="matrix(30,0,0,30,119.408,118.729)">
            <path d="M0.268,-0.238L0.037,-0.644L0.178,-0.644L0.336,-0.353L0.494,-0.644L0.634,-0.644L0.403,-0.238L0.403,-0L0.268,-0L0.268,-0.238Z" style="fill:white;fill-rule:nonzero;"/>
        </g>
        <g transform="matrix(30,0,0,30,137.888,118.729)">
            <path d="M0.283,-0.644L0.431,-0.644L0.676,-0L0.536,-0L0.475,-0.155L0.238,-0.155L0.178,-0L0.037,-0L0.283,-0.644ZM0.455,-0.259L0.356,-0.518L0.258,-0.259L0.455,-0.259Z" style="fill:white;fill-rule:nonzero;"/>
        </g>
        <g transform="matrix(30,0,0,30,160.328,118.729)">
            <path d="M0.057,-0.644L0.193,-0.644L0.382,-0.257L0.571,-0.644L0.706,-0.644L0.706,-0L0.571,-0L0.571,-0.419L0.421,-0.111L0.343,-0.111L0.192,-0.419L0.192,-0L0.057,-0L0.057,-0.644Z" style="fill:white;fill-rule:nonzero;"/>
        </g>
        <g transform="matrix(30,0,0,30,185.018,118.729)">
            <path d="M0.057,-0.644L0.192,-0.644L0.192,-0.104L0.509,-0.104L0.509,-0L0.057,-0L0.057,-0.644Z" style="fill:white;fill-rule:nonzero;"/>
        </g>
    </g>
    <g transform="matrix(125.177,0,0,124.724,112.202,126.241)">
        <path d="M0.283,-0.644L0.431,-0.644L0.676,-0L0.536,-0L0.475,-0.155L0.238,-0.155L0.178,-0L0.037,-0L0.283,-0.644ZM0.455,-0.259L0.356,-0.518L0.258,-0.259L0.455,-0.259Z" style="fill:rgb(10,123,192);fill-rule:nonzero;"/>
    </g>
    <g transform="matrix(125.177,0,0,124.724,201.448,126.241)">
        <path d="M0.182,-0.219L0.042,-0.219L0.042,-0.324L0.182,-0.324L0.182,-0.461L0.288,-0.461L0.288,-0.324L0.428,-0.324L0.428,-0.219L0.288,-0.219L0.288,-0.085L0.182,-0.085L0.182,-0.219Z" style="fill:rgb(10,123,192);fill-rule:nonzero;"/>
    </g>
    <g id="many-stars" serif:id="many stars" transform="matrix(1.22353,0,0,1.22353,-61.1517,-117.872)">
        <g transform="matrix(-44.2472,-44.2472,-44.2472,44.2472,184.348,480.658)">
            <path d="M0.918,-0.274L0.855,-0.088C0.849,-0.069 0.852,-0.048 0.864,-0.032L0.982,0.125C1.012,0.166 0.982,0.223 0.932,0.222L0.736,0.22C0.716,0.22 0.697,0.229 0.685,0.246L0.572,0.406C0.543,0.447 0.479,0.437 0.464,0.389L0.406,0.201C0.4,0.182 0.385,0.167 0.366,0.161L0.178,0.103C0.13,0.088 0.12,0.024 0.161,-0.005L0.321,-0.118C0.338,-0.13 0.347,-0.149 0.347,-0.169L0.345,-0.365C0.344,-0.415 0.402,-0.445 0.442,-0.414L0.599,-0.297C0.615,-0.285 0.636,-0.282 0.655,-0.288L0.841,-0.351C0.865,-0.359 0.888,-0.352 0.904,-0.337C0.919,-0.321 0.927,-0.298 0.918,-0.274Z" style="fill:rgb(10,123,192);fill-rule:nonzero;"/>
        </g>
        <g transform="matrix(1.40042,0,0,1.40042,162.671,475.968)">
            <path d="M0,-34.32L3.878,-26.461C4.275,-25.657 5.042,-25.099 5.929,-24.97L14.602,-23.711C16.836,-23.385 17.729,-20.64 16.112,-19.064L9.836,-12.947C9.194,-12.321 8.901,-11.42 9.053,-10.536L10.534,-1.898C10.916,0.326 8.581,2.024 6.582,0.973L-1.175,-3.105C-1.969,-3.522 -2.917,-3.522 -3.71,-3.105L-11.467,0.973C-13.466,2.024 -15.801,0.326 -15.419,-1.898L-13.938,-10.536C-13.787,-11.42 -14.08,-12.321 -14.722,-12.947L-20.997,-19.064C-22.614,-20.64 -21.722,-23.385 -19.488,-23.711L-10.815,-24.97C-9.928,-25.099 -9.161,-25.657 -8.764,-26.461L-4.885,-34.32C-3.886,-36.344 -0.999,-36.344 0,-34.32Z" style="fill:none;fill-rule:nonzero;stroke:rgb(4,55,81);stroke-width:0.74px;"/>
        </g>
        <g transform="matrix(-44.2472,-44.2472,-44.2472,44.2472,243.906,480.658)">
            <path d="M0.918,-0.274L0.855,-0.088C0.849,-0.069 0.852,-0.048 0.864,-0.032L0.982,0.125C1.012,0.166 0.982,0.223 0.932,0.222L0.736,0.22C0.716,0.22 0.697,0.229 0.685,0.246L0.572,0.406C0.543,0.447 0.479,0.437 0.464,0.389L0.406,0.201C0.4,0.182 0.385,0.167 0.366,0.161L0.178,0.103C0.13,0.088 0.12,0.024 0.161,-0.005L0.321,-0.118C0.338,-0.13 0.347,-0.149 0.347,-0.169L0.345,-0.365C0.344,-0.415 0.402,-0.445 0.442,-0.414L0.599,-0.297C0.615,-0.285 0.636,-0.282 0.655,-0.288L0.841,-0.351C0.865,-0.359 0.888,-0.352 0.904,-0.337C0.919,-0.321 0.927,-0.298 0.918,-0.274Z" style="fill:rgb(10,123,192);fill-rule:nonzero;"/>
        </g>
        <g transform="matrix(1.40042,0,0,1.40042,222.229,475.968)">
            <path d="M0,-34.32L3.878,-26.461C4.275,-25.657 5.042,-25.099 5.93,-24.97L14.603,-23.711C16.836,-23.385 17.729,-20.64 16.112,-19.064L9.836,-12.947C9.194,-12.321 8.901,-11.42 9.053,-10.536L10.534,-1.898C10.916,0.326 8.581,2.024 6.582,0.973L-1.175,-3.105C-1.969,-3.522 -2.917,-3.522 -3.71,-3.105L-11.467,0.973C-13.466,2.024 -15.801,0.326 -15.419,-1.898L-13.938,-10.536C-13.787,-11.42 -14.08,-12.321 -14.721,-12.947L-20.997,-19.064C-22.614,-20.64 -21.722,-23.385 -19.487,-23.711L-10.814,-24.97C-9.927,-25.099 -9.161,-25.657 -8.764,-26.461L-4.885,-34.32C-3.886,-36.344 -0.999,-36.344 0,-34.32Z" style="fill:none;fill-rule:nonzero;stroke:rgb(4,55,81);stroke-width:0.74px;"/>
        </g>
        <g transform="matrix(-44.2472,-44.2472,-44.2472,44.2472,303.464,480.658)">
            <path d="M0.918,-0.274L0.855,-0.088C0.849,-0.069 0.852,-0.048 0.864,-0.032L0.982,0.125C1.012,0.166 0.982,0.223 0.932,0.223L0.736,0.22C0.716,0.22 0.697,0.229 0.685,0.246L0.572,0.406C0.543,0.447 0.479,0.437 0.464,0.389L0.406,0.201C0.4,0.182 0.385,0.167 0.366,0.161L0.178,0.103C0.13,0.088 0.12,0.024 0.161,-0.005L0.321,-0.118C0.338,-0.13 0.347,-0.149 0.347,-0.169L0.345,-0.365C0.344,-0.415 0.402,-0.445 0.442,-0.414L0.599,-0.297C0.615,-0.285 0.636,-0.282 0.655,-0.288L0.841,-0.351C0.865,-0.359 0.888,-0.352 0.904,-0.337C0.919,-0.321 0.927,-0.298 0.918,-0.274Z" style="fill:rgb(10,123,192);fill-rule:nonzero;"/>
        </g>
        <g transform="matrix(1.40042,0,0,1.40042,281.786,475.968)">
            <path d="M0,-34.32L3.879,-26.461C4.275,-25.657 5.042,-25.099 5.93,-24.97L14.603,-23.711C16.836,-23.385 17.729,-20.64 16.112,-19.064L9.836,-12.947C9.194,-12.321 8.901,-11.42 9.053,-10.536L10.534,-1.898C10.916,0.326 8.581,2.024 6.582,0.973L-1.175,-3.105C-1.969,-3.522 -2.917,-3.522 -3.71,-3.105L-11.467,0.973C-13.465,2.024 -15.801,0.326 -15.419,-1.898L-13.938,-10.536C-13.786,-11.42 -14.079,-12.321 -14.721,-12.947L-20.997,-19.064C-22.614,-20.64 -21.722,-23.385 -19.487,-23.711L-10.814,-24.97C-9.927,-25.099 -9.161,-25.657 -8.764,-26.461L-4.885,-34.32C-3.886,-36.344 -0.999,-36.344 0,-34.32Z" style="fill:none;fill-rule:nonzero;stroke:rgb(4,55,81);stroke-width:0.74px;"/>
        </g>
        <g transform="matrix(-44.2472,-44.2472,-44.2472,44.2472,363.02,480.658)">
            <path d="M0.918,-0.274L0.855,-0.088C0.849,-0.069 0.852,-0.048 0.864,-0.032L0.982,0.125C1.012,0.166 0.982,0.223 0.932,0.222L0.736,0.22C0.716,0.22 0.697,0.229 0.685,0.246L0.572,0.406C0.543,0.447 0.479,0.437 0.464,0.389L0.406,0.201C0.4,0.182 0.385,0.167 0.366,0.161L0.178,0.103C0.13,0.088 0.12,0.024 0.161,-0.005L0.321,-0.118C0.338,-0.13 0.347,-0.149 0.347,-0.169L0.345,-0.365C0.344,-0.415 0.402,-0.445 0.442,-0.414L0.599,-0.297C0.615,-0.285 0.636,-0.282 0.655,-0.288L0.841,-0.351C0.865,-0.359 0.888,-0.352 0.904,-0.337C0.919,-0.321 0.927,-0.298 0.918,-0.274Z" style="fill:rgb(10,123,192);fill-rule:nonzero;"/>
        </g>
        <g transform="matrix(1.40042,0,0,1.40042,341.343,475.968)">
            <path d="M0,-34.32L3.879,-26.461C4.275,-25.657 5.042,-25.099 5.93,-24.97L14.603,-23.711C16.836,-23.385 17.729,-20.64 16.112,-19.064L9.836,-12.947C9.194,-12.321 8.901,-11.42 9.053,-10.536L10.535,-1.898C10.916,0.326 8.581,2.024 6.583,0.973L-1.175,-3.105C-1.968,-3.522 -2.917,-3.522 -3.71,-3.105L-11.467,0.973C-13.465,2.024 -15.801,0.326 -15.419,-1.898L-13.938,-10.536C-13.786,-11.42 -14.079,-12.321 -14.721,-12.947L-20.997,-19.064C-22.614,-20.64 -21.722,-23.385 -19.487,-23.711L-10.814,-24.97C-9.927,-25.099 -9.16,-25.657 -8.764,-26.461L-4.885,-34.32C-3.886,-36.344 -0.999,-36.344 0,-34.32Z" style="fill:none;fill-rule:nonzero;stroke:rgb(4,55,81);stroke-width:0.74px;"/>
        </g>
        <g transform="matrix(1.40042,0,0,1.40042,400.901,475.968)">
            <path d="M0,-34.32L3.879,-26.461C4.275,-25.657 5.042,-25.099 5.93,-24.97L14.603,-23.711C16.837,-23.385 17.729,-20.64 16.112,-19.064L9.836,-12.947C9.194,-12.321 8.901,-11.42 9.053,-10.536L10.535,-1.898C10.916,0.326 8.581,2.024 6.583,0.973L-1.175,-3.105C-1.968,-3.522 -2.917,-3.522 -3.71,-3.105L-11.467,0.973C-13.465,2.024 -15.801,0.326 -15.419,-1.898L-13.938,-10.536C-13.786,-11.42 -14.079,-12.321 -14.721,-12.947L-20.997,-19.064C-22.613,-20.64 -21.721,-23.385 -19.487,-23.711L-10.814,-24.97C-9.927,-25.099 -9.16,-25.657 -8.764,-26.461L-4.885,-34.32C-3.886,-36.344 -0.999,-36.344 0,-34.32Z" style="fill:none;fill-rule:nonzero;stroke:rgb(4,55,81);stroke-width:0.74px;"/>
        </g>
        <g transform="matrix(1.40042,0,0,1.40042,401.252,475.938)">
            <path d="M0,-34.32L3.878,-26.461C4.275,-25.657 5.042,-25.099 5.93,-24.97L14.603,-23.711C16.836,-23.385 17.729,-20.64 16.112,-19.064L9.836,-12.947C9.194,-12.321 8.901,-11.42 9.053,-10.536L10.534,-1.898C10.916,0.326 8.581,2.024 6.582,0.973L-1.175,-3.105C-1.969,-3.522 -2.917,-3.522 -3.71,-3.105L-11.467,0.973C-13.466,2.024 -15.801,0.326 -15.419,-1.898L-13.938,-10.536C-13.787,-11.42 -14.08,-12.321 -14.721,-12.947L-20.997,-19.064C-22.614,-20.64 -21.722,-23.385 -19.487,-23.711L-10.814,-24.97C-9.927,-25.099 -9.161,-25.657 -8.764,-26.461L-4.885,-34.32C-3.886,-36.344 -0.999,-36.344 0,-34.32Z" style="fill:none;fill-rule:nonzero;stroke:rgb(4,55,81);stroke-width:0.74px;"/>
        </g>
    </g>
    <defs>
        <linearGradient id="_Linear1" x1="0" y1="0" x2="1" y2="0" gradientUnits="userSpaceOnUse" gradientTransform="matrix(1,0,0,1,0,-1.26553e-06)"><stop offset="0" style="stop-color:rgb(176,209,230);stop-opacity:1"/><stop offset="0" style="stop-color:rgb(176,209,230);stop-opacity:1"/><stop offset="1" style="stop-color:rgb(242,250,255);stop-opacity:1"/></linearGradient>
        <linearGradient id="_Linear2" x1="0" y1="0" x2="1" y2="0" gradientUnits="userSpaceOnUse" gradientTransform="matrix(1,0,0,1,0,-3.68051e-06)"><stop offset="0" style="stop-color:rgb(192,10,95);stop-opacity:1"/><stop offset="0.99" style="stop-color:rgb(238,131,179);stop-opacity:1"/><stop offset="1" style="stop-color:rgb(238,131,179);stop-opacity:1"/></linearGradient>
    </defs>
</svg>
