<?xml version="1.0" encoding="UTF-8" standalone="no"?>
<!DOCTYPE svg PUBLIC "-//W3C//DTD SVG 1.1//EN" "http://www.w3.org/Graphics/SVG/1.1/DTD/svg11.dtd">
<svg width="100%" height="100%" viewBox="0 0 473 514" version="1.1" xmlns="http://www.w3.org/2000/svg" xmlns:xlink="http://www.w3.org/1999/xlink" xml:space="preserve" xmlns:serif="http://www.serif.com/" style="fill-rule:evenodd;clip-rule:evenodd;stroke-miterlimit:10;">
    <g transform="matrix(1.4024,0,0,1.39733,375.95,3.61095e-15)">
        <path d="M0,91.622L68.717,91.622L-22.905,0L-22.905,68.717C-22.905,81.314 -12.598,91.622 0,91.622" style="fill:rgb(164,193,208);fill-rule:nonzero;"/>
    </g>
    <g transform="matrix(0,-512.101,-513.962,0,280.264,512.293)">
        <path d="M1,0.312C1,0.347 0.972,0.375 0.937,0.375L0.063,0.375C0.028,0.375 -0,0.347 -0,0.312L-0,-0.313C-0,-0.347 0.028,-0.375 0.063,-0.375L0.75,-0.375L1,-0.125L1,0.312Z" style="fill:url(#_Linear1);fill-rule:nonzero;"/>
    </g>
    <g transform="matrix(0,-253.685,-254.607,0,192.738,422.905)">
        <path d="M1.027,0.645C1.027,0.707 0.977,0.757 0.915,0.757L0.381,0.757C0.32,0.757 0.27,0.707 0.27,0.645L0.27,-0.645C0.27,-0.707 0.32,-0.757 0.381,-0.757L0.915,-0.757C0.977,-0.757 1.027,-0.707 1.027,-0.645L1.027,0.645Z" style="fill:url(#_Linear2);fill-rule:nonzero;"/>
    </g>
    <g transform="matrix(4.17257,0,0,4.15747,-477.15,-189.621)">
        <g transform="matrix(30,0,0,30,119.408,118.729)">
            <path d="M0.268,-0.238L0.037,-0.644L0.178,-0.644L0.336,-0.353L0.494,-0.644L0.634,-0.644L0.403,-0.238L0.403,-0L0.268,-0L0.268,-0.238Z" style="fill:white;fill-rule:nonzero;"/>
        </g>
        <g transform="matrix(30,0,0,30,137.888,118.729)">
            <path d="M0.283,-0.644L0.431,-0.644L0.676,-0L0.536,-0L0.475,-0.155L0.238,-0.155L0.178,-0L0.037,-0L0.283,-0.644ZM0.455,-0.259L0.356,-0.518L0.258,-0.259L0.455,-0.259Z" style="fill:white;fill-rule:nonzero;"/>
        </g>
        <g transform="matrix(30,0,0,30,160.328,118.729)">
            <path d="M0.057,-0.644L0.193,-0.644L0.382,-0.257L0.571,-0.644L0.706,-0.644L0.706,-0L0.571,-0L0.571,-0.419L0.421,-0.111L0.343,-0.111L0.192,-0.419L0.192,-0L0.057,-0L0.057,-0.644Z" style="fill:white;fill-rule:nonzero;"/>
        </g>
        <g transform="matrix(30,0,0,30,185.018,118.729)">
            <path d="M0.057,-0.644L0.192,-0.644L0.192,-0.104L0.509,-0.104L0.509,-0L0.057,-0L0.057,-0.644Z" style="fill:white;fill-rule:nonzero;"/>
        </g>
    </g>
    <g transform="matrix(125.177,0,0,124.724,112.202,126.241)">
        <path d="M0.283,-0.644L0.431,-0.644L0.676,-0L0.536,-0L0.475,-0.155L0.238,-0.155L0.178,-0L0.037,-0L0.283,-0.644ZM0.455,-0.259L0.356,-0.518L0.258,-0.259L0.455,-0.259Z" style="fill:rgb(10,123,192);fill-rule:nonzero;"/>
    </g>
    <g transform="matrix(125.177,0,0,124.724,201.448,126.241)">
        <path d="M0.182,-0.219L0.042,-0.219L0.042,-0.324L0.182,-0.324L0.182,-0.461L0.288,-0.461L0.288,-0.324L0.428,-0.324L0.428,-0.219L0.288,-0.219L0.288,-0.085L0.182,-0.085L0.182,-0.219Z" style="fill:rgb(10,123,192);fill-rule:nonzero;"/>
    </g>
    <g id="small-star">
        <g transform="matrix(-99.0596,-99.0596,-99.0596,99.0596,444.478,497.438)">
            <path d="M0.918,-0.274L0.855,-0.088C0.849,-0.069 0.852,-0.048 0.864,-0.032L0.982,0.125C1.012,0.166 0.982,0.223 0.932,0.223L0.736,0.22C0.716,0.22 0.697,0.229 0.685,0.246L0.572,0.406C0.543,0.447 0.479,0.437 0.464,0.389L0.406,0.201C0.4,0.182 0.385,0.167 0.366,0.161L0.178,0.103C0.13,0.088 0.12,0.024 0.161,-0.005L0.321,-0.118C0.338,-0.13 0.347,-0.149 0.347,-0.169L0.345,-0.365C0.344,-0.415 0.402,-0.445 0.442,-0.414L0.599,-0.297C0.615,-0.285 0.636,-0.282 0.655,-0.288L0.841,-0.351C0.865,-0.359 0.888,-0.352 0.904,-0.337C0.919,-0.321 0.927,-0.298 0.918,-0.274Z" style="fill:url(#_Linear3);fill-rule:nonzero;"/>
        </g>
        <g transform="matrix(3.13523,0,0,3.13523,395.948,486.938)">
            <path d="M0,-34.319L3.878,-26.461C4.275,-25.656 5.042,-25.099 5.929,-24.97L14.602,-23.71C16.836,-23.385 17.729,-20.639 16.112,-19.064L9.836,-12.947C9.194,-12.321 8.901,-11.42 9.053,-10.536L10.534,-1.898C10.916,0.327 8.58,2.024 6.582,0.974L-1.175,-3.104C-1.969,-3.522 -2.917,-3.522 -3.71,-3.104L-11.467,0.974C-13.466,2.024 -15.801,0.327 -15.419,-1.898L-13.938,-10.536C-13.787,-11.42 -14.08,-12.321 -14.722,-12.947L-20.997,-19.064C-22.614,-20.639 -21.722,-23.385 -19.488,-23.71L-10.815,-24.97C-9.928,-25.099 -9.161,-25.656 -8.764,-26.461L-4.885,-34.319C-3.886,-36.343 -1,-36.343 0,-34.319Z" style="fill:none;fill-rule:nonzero;stroke:rgb(4,55,81);stroke-width:0.74px;"/>
        </g>
        <g transform="matrix(0.997791,0,0,0.997791,-887.363,-1370.64)">
            <g transform="matrix(83.5178,0,0,83.5178,1254.69,1841.7)">
                <path d="M0.274,-0.432C0.304,-0.432 0.33,-0.441 0.351,-0.458C0.373,-0.476 0.384,-0.501 0.384,-0.534C0.384,-0.559 0.375,-0.581 0.358,-0.599C0.341,-0.617 0.317,-0.626 0.288,-0.626C0.268,-0.626 0.252,-0.623 0.239,-0.618C0.226,-0.612 0.216,-0.605 0.208,-0.596C0.201,-0.587 0.194,-0.575 0.187,-0.561C0.181,-0.546 0.174,-0.533 0.169,-0.52C0.166,-0.513 0.16,-0.508 0.151,-0.504C0.143,-0.5 0.133,-0.498 0.122,-0.498C0.109,-0.498 0.097,-0.503 0.086,-0.514C0.075,-0.524 0.07,-0.539 0.07,-0.556C0.07,-0.573 0.075,-0.591 0.085,-0.61C0.095,-0.628 0.11,-0.646 0.13,-0.663C0.15,-0.68 0.174,-0.694 0.204,-0.704C0.233,-0.714 0.266,-0.719 0.302,-0.719C0.333,-0.719 0.362,-0.715 0.388,-0.706C0.414,-0.698 0.437,-0.685 0.456,-0.669C0.475,-0.653 0.49,-0.634 0.5,-0.612C0.509,-0.591 0.514,-0.568 0.514,-0.543C0.514,-0.51 0.507,-0.483 0.493,-0.459C0.479,-0.436 0.458,-0.413 0.432,-0.391C0.458,-0.377 0.479,-0.362 0.496,-0.344C0.514,-0.327 0.527,-0.307 0.536,-0.286C0.544,-0.265 0.549,-0.242 0.549,-0.217C0.549,-0.187 0.543,-0.159 0.531,-0.131C0.519,-0.103 0.502,-0.079 0.479,-0.057C0.455,-0.035 0.428,-0.018 0.396,-0.006C0.365,0.006 0.329,0.012 0.291,0.012C0.252,0.012 0.217,0.005 0.186,-0.009C0.155,-0.023 0.13,-0.04 0.11,-0.061C0.09,-0.082 0.074,-0.104 0.064,-0.126C0.054,-0.149 0.049,-0.167 0.049,-0.182C0.049,-0.201 0.055,-0.216 0.067,-0.228C0.079,-0.239 0.095,-0.245 0.113,-0.245C0.122,-0.245 0.131,-0.242 0.139,-0.237C0.148,-0.232 0.153,-0.225 0.156,-0.218C0.173,-0.173 0.191,-0.139 0.21,-0.117C0.23,-0.095 0.257,-0.084 0.292,-0.084C0.312,-0.084 0.332,-0.089 0.35,-0.099C0.369,-0.109 0.385,-0.124 0.397,-0.143C0.409,-0.163 0.415,-0.185 0.415,-0.211C0.415,-0.249 0.405,-0.279 0.384,-0.301C0.363,-0.322 0.334,-0.333 0.297,-0.333C0.29,-0.333 0.28,-0.332 0.267,-0.331C0.253,-0.33 0.244,-0.329 0.24,-0.329C0.222,-0.329 0.208,-0.334 0.199,-0.343C0.189,-0.351 0.184,-0.364 0.184,-0.38C0.184,-0.396 0.19,-0.408 0.202,-0.418C0.213,-0.427 0.231,-0.432 0.254,-0.432L0.274,-0.432Z" style="fill-rule:nonzero;"/>
            </g>
        </g>
    </g>
    <defs>
        <linearGradient id="_Linear1" x1="0" y1="0" x2="1" y2="0" gradientUnits="userSpaceOnUse" gradientTransform="matrix(1,0,0,1,0,-1.26553e-06)"><stop offset="0" style="stop-color:rgb(176,209,230);stop-opacity:1"/><stop offset="0" style="stop-color:rgb(176,209,230);stop-opacity:1"/><stop offset="1" style="stop-color:rgb(242,250,255);stop-opacity:1"/></linearGradient>
        <linearGradient id="_Linear2" x1="0" y1="0" x2="1" y2="0" gradientUnits="userSpaceOnUse" gradientTransform="matrix(1,0,0,1,0,-3.68051e-06)"><stop offset="0" style="stop-color:rgb(192,10,95);stop-opacity:1"/><stop offset="0.99" style="stop-color:rgb(238,131,179);stop-opacity:1"/><stop offset="1" style="stop-color:rgb(238,131,179);stop-opacity:1"/></linearGradient>
        <linearGradient id="_Linear3" x1="0" y1="0" x2="1" y2="0" gradientUnits="userSpaceOnUse" gradientTransform="matrix(1,0,0,1,0,0.0025377)"><stop offset="0" style="stop-color:rgb(255,174,64);stop-opacity:1"/><stop offset="0" style="stop-color:rgb(255,174,64);stop-opacity:1"/><stop offset="0.99" style="stop-color:rgb(255,228,128);stop-opacity:1"/><stop offset="1" style="stop-color:rgb(255,228,128);stop-opacity:1"/></linearGradient>
    </defs>
</svg>
