<?xml version="1.0" encoding="UTF-8" standalone="no"?>
<!DOCTYPE svg PUBLIC "-//W3C//DTD SVG 1.1//EN" "http://www.w3.org/Graphics/SVG/1.1/DTD/svg11.dtd">
<svg width="100%" height="100%" viewBox="0 0 473 514" version="1.1" xmlns="http://www.w3.org/2000/svg" xmlns:xlink="http://www.w3.org/1999/xlink" xml:space="preserve" xmlns:serif="http://www.serif.com/" style="fill-rule:evenodd;clip-rule:evenodd;stroke-linejoin:round;stroke-miterlimit:2;">
    <g transform="matrix(1.4024,0,0,1.39733,375.95,3.61095e-15)">
        <path d="M0,91.622L68.717,91.622L-22.905,0L-22.905,68.717C-22.905,81.314 -12.598,91.622 0,91.622" style="fill:rgb(164,193,208);fill-rule:nonzero;"/>
    </g>
    <g transform="matrix(0,-512.101,-513.962,0,280.264,512.293)">
        <path d="M1,0.312C1,0.347 0.972,0.375 0.937,0.375L0.063,0.375C0.028,0.375 -0,0.347 -0,0.312L-0,-0.313C-0,-0.347 0.028,-0.375 0.063,-0.375L0.75,-0.375L1,-0.125L1,0.312Z" style="fill:url(#_Linear1);fill-rule:nonzero;"/>
    </g>
    <g id="big-star">
        <g transform="matrix(0.24034,-2.77556e-17,-2.77556e-17,0.23947,-30.8555,-119.101)">
            <path d="M1478.73,2636.63L1665.08,2636.63L1772.46,2579.89C1792.28,2569.58 1816.07,2569.58 1835.89,2579.89L1943.27,2636.63L1963.84,2636.63C2036.55,2636.63 2096.43,2576.75 2096.43,2501.91L2096.43,2415.53L2092.78,2394.35C2090.59,2381.65 2092.03,2369.2 2096.43,2357.92L2096.43,2043.99L2014.29,2032C1992.09,2028.83 1973.06,2014.56 1962.75,1994.74L1865.22,1797.31C1852.54,1771.93 1828.75,1759.25 1804.17,1758.45C1779.59,1759.25 1755.01,1771.14 1743.12,1797.31L1645.59,1994.74C1635.29,2014.56 1616.26,2028.83 1594.06,2032L1376.01,2062.92C1319.72,2071.64 1298.31,2140.63 1338.75,2179.48L1495.74,2333.3C1511.6,2349.16 1519.52,2371.36 1515.56,2394.35L1478.29,2610.81C1476.75,2619.83 1477,2628.52 1478.73,2636.63Z" style="fill:rgb(218,71,255);fill-rule:nonzero;"/>
        </g>
        <g transform="matrix(1.00142,0,0,0.997791,-897.259,-1365.28)">
            <g transform="matrix(144,0,0,144,1254.69,1841.7)">
                <path d="M0.463,-0.595L0.231,-0.595L0.203,-0.437C0.249,-0.462 0.292,-0.474 0.331,-0.474C0.362,-0.474 0.392,-0.468 0.419,-0.457C0.446,-0.445 0.47,-0.429 0.49,-0.408C0.511,-0.387 0.527,-0.363 0.539,-0.334C0.55,-0.306 0.556,-0.276 0.556,-0.243C0.556,-0.196 0.546,-0.153 0.524,-0.114C0.503,-0.076 0.473,-0.045 0.433,-0.022C0.393,0.001 0.347,0.012 0.295,0.012C0.237,0.012 0.189,0.001 0.153,-0.02C0.117,-0.042 0.091,-0.066 0.076,-0.094C0.061,-0.122 0.053,-0.146 0.053,-0.167C0.053,-0.18 0.059,-0.192 0.069,-0.203C0.08,-0.215 0.093,-0.22 0.109,-0.22C0.136,-0.22 0.157,-0.204 0.17,-0.173C0.183,-0.144 0.201,-0.121 0.223,-0.105C0.245,-0.089 0.27,-0.081 0.297,-0.081C0.322,-0.081 0.344,-0.088 0.363,-0.101C0.382,-0.114 0.396,-0.132 0.406,-0.154C0.417,-0.177 0.422,-0.203 0.422,-0.232C0.422,-0.263 0.416,-0.29 0.405,-0.312C0.394,-0.334 0.379,-0.351 0.361,-0.362C0.342,-0.372 0.322,-0.378 0.299,-0.378C0.271,-0.378 0.251,-0.375 0.239,-0.368C0.227,-0.361 0.209,-0.349 0.187,-0.332C0.164,-0.315 0.146,-0.306 0.131,-0.306C0.115,-0.306 0.101,-0.312 0.088,-0.323C0.076,-0.335 0.07,-0.348 0.07,-0.363C0.07,-0.364 0.072,-0.375 0.075,-0.396L0.116,-0.63C0.121,-0.658 0.129,-0.678 0.142,-0.691C0.154,-0.704 0.174,-0.71 0.202,-0.71L0.46,-0.71C0.511,-0.71 0.536,-0.691 0.536,-0.652C0.536,-0.635 0.53,-0.621 0.518,-0.611C0.505,-0.6 0.487,-0.595 0.463,-0.595Z" style="fill:white;fill-rule:nonzero;"/>
            </g>
        </g>
    </g>
    <g transform="matrix(0,-253.685,-254.607,0,192.738,422.905)">
        <path d="M1.027,0.645C1.027,0.707 0.977,0.757 0.915,0.757L0.381,0.757C0.32,0.757 0.27,0.707 0.27,0.645L0.27,-0.645C0.27,-0.707 0.32,-0.757 0.381,-0.757L0.915,-0.757C0.977,-0.757 1.027,-0.707 1.027,-0.645L1.027,0.645Z" style="fill:url(#_Linear2);fill-rule:nonzero;"/>
    </g>
    <g transform="matrix(4.17257,0,0,4.15747,-477.15,-189.621)">
        <g transform="matrix(30,0,0,30,119.408,118.729)">
            <path d="M0.268,-0.238L0.037,-0.644L0.178,-0.644L0.336,-0.353L0.494,-0.644L0.634,-0.644L0.403,-0.238L0.403,-0L0.268,-0L0.268,-0.238Z" style="fill:white;fill-rule:nonzero;"/>
        </g>
        <g transform="matrix(30,0,0,30,137.888,118.729)">
            <path d="M0.283,-0.644L0.431,-0.644L0.676,-0L0.536,-0L0.475,-0.155L0.238,-0.155L0.178,-0L0.037,-0L0.283,-0.644ZM0.455,-0.259L0.356,-0.518L0.258,-0.259L0.455,-0.259Z" style="fill:white;fill-rule:nonzero;"/>
        </g>
        <g transform="matrix(30,0,0,30,160.328,118.729)">
            <path d="M0.057,-0.644L0.193,-0.644L0.382,-0.257L0.571,-0.644L0.706,-0.644L0.706,-0L0.571,-0L0.571,-0.419L0.421,-0.111L0.343,-0.111L0.192,-0.419L0.192,-0L0.057,-0L0.057,-0.644Z" style="fill:white;fill-rule:nonzero;"/>
        </g>
        <g transform="matrix(30,0,0,30,185.018,118.729)">
            <path d="M0.057,-0.644L0.192,-0.644L0.192,-0.104L0.509,-0.104L0.509,-0L0.057,-0L0.057,-0.644Z" style="fill:white;fill-rule:nonzero;"/>
        </g>
    </g>
    <g transform="matrix(125.177,0,0,124.724,112.202,126.241)">
        <path d="M0.283,-0.644L0.431,-0.644L0.676,-0L0.536,-0L0.475,-0.155L0.238,-0.155L0.178,-0L0.037,-0L0.283,-0.644ZM0.455,-0.259L0.356,-0.518L0.258,-0.259L0.455,-0.259Z" style="fill:rgb(10,123,192);fill-rule:nonzero;"/>
    </g>
    <g transform="matrix(125.177,0,0,124.724,201.448,126.241)">
        <path d="M0.182,-0.219L0.042,-0.219L0.042,-0.324L0.182,-0.324L0.182,-0.461L0.288,-0.461L0.288,-0.324L0.428,-0.324L0.428,-0.219L0.288,-0.219L0.288,-0.085L0.182,-0.085L0.182,-0.219Z" style="fill:rgb(10,123,192);fill-rule:nonzero;"/>
    </g>
    <defs>
        <linearGradient id="_Linear1" x1="0" y1="0" x2="1" y2="0" gradientUnits="userSpaceOnUse" gradientTransform="matrix(1,0,0,1,0,-1.26553e-06)"><stop offset="0" style="stop-color:rgb(176,209,230);stop-opacity:1"/><stop offset="0" style="stop-color:rgb(176,209,230);stop-opacity:1"/><stop offset="1" style="stop-color:rgb(242,250,255);stop-opacity:1"/></linearGradient>
        <linearGradient id="_Linear2" x1="0" y1="0" x2="1" y2="0" gradientUnits="userSpaceOnUse" gradientTransform="matrix(1,0,0,1,0,-3.68051e-06)"><stop offset="0" style="stop-color:rgb(192,10,95);stop-opacity:1"/><stop offset="0.99" style="stop-color:rgb(238,131,179);stop-opacity:1"/><stop offset="1" style="stop-color:rgb(238,131,179);stop-opacity:1"/></linearGradient>
    </defs>
</svg>
