<?xml version="1.0" encoding="UTF-8" standalone="no"?>
<!DOCTYPE svg PUBLIC "-//W3C//DTD SVG 1.1//EN" "http://www.w3.org/Graphics/SVG/1.1/DTD/svg11.dtd">
<svg width="100%" height="100%" viewBox="0 0 473 514" version="1.1" xmlns="http://www.w3.org/2000/svg" xmlns:xlink="http://www.w3.org/1999/xlink" xml:space="preserve" xmlns:serif="http://www.serif.com/" style="fill-rule:evenodd;clip-rule:evenodd;stroke-linejoin:round;stroke-miterlimit:2;">
    <g transform="matrix(1.4024,0,0,1.39733,375.95,3.61095e-15)">
        <path d="M0,91.622L68.717,91.622L-22.905,0L-22.905,68.717C-22.905,81.314 -12.598,91.622 0,91.622" style="fill:rgb(164,193,208);fill-rule:nonzero;"/>
    </g>
    <g transform="matrix(0,-512.101,-513.962,0,280.264,512.293)">
        <path d="M1,0.312C1,0.347 0.972,0.375 0.937,0.375L0.063,0.375C0.028,0.375 -0,0.347 -0,0.312L-0,-0.313C-0,-0.347 0.028,-0.375 0.063,-0.375L0.75,-0.375L1,-0.125L1,0.312Z" style="fill:url(#_Linear1);fill-rule:nonzero;"/>
    </g>
    <g id="new-design-B">
        <g id="big-star" transform="matrix(1,0,0,1,-201.789,-0.523252)">
            <g transform="matrix(1,0,0,1,201.789,0.523252)">
                <path d="M87.529,339.468L87.529,416.772L97.255,426.211C102.154,431.11 104.648,437.926 103.505,444.949L94.533,500.158C100.446,507.57 109.585,512.293 119.908,512.293L163.858,512.293L182.662,502.491C188.695,499.398 195.972,499.471 202.068,502.684L220.009,512.293L292.02,512.293L280.097,446.703C278.815,439.656 281.173,432.888 285.976,428.085L333.538,381.503C345.791,369.74 338.787,348.326 321.543,345.972L254.982,335.609C248.18,334.571 242.315,330.147 239.101,324.051L208.665,263.354C204.706,255.553 197.391,251.6 189.869,251.283C182.351,251.451 174.868,255.015 171.309,262.983L142.072,323.087C138.979,329.12 133.201,333.429 126.418,334.332L87.529,339.468Z" style="fill:rgb(255,203,98);fill-rule:nonzero;stroke:black;stroke-width:2.29px;"/>
            </g>
            <g transform="matrix(1.00142,0,0,0.997791,-901.711,-1390.65)">
                <text x="1254.69px" y="1841.7px" style="font-family:'ArialRoundedMTBold', 'Arial Rounded MT Bold', sans-serif;font-size:125.277px;">5</text>
            </g>
        </g>
        <g id="file" transform="matrix(1,0,0,1,0,-89.351)">
            <g transform="matrix(0,-253.685,-254.607,0,192.738,422.905)">
                <path d="M1.027,0.645C1.027,0.707 0.977,0.757 0.915,0.757L0.381,0.757C0.32,0.757 0.27,0.707 0.27,0.645L0.27,-0.645C0.27,-0.707 0.32,-0.757 0.381,-0.757L0.915,-0.757C0.977,-0.757 1.027,-0.707 1.027,-0.645L1.027,0.645Z" style="fill:url(#_Linear2);fill-rule:nonzero;"/>
            </g>
            <g transform="matrix(4.17257,0,0,4.15747,-477.15,-189.621)">
                <g transform="matrix(30,0,0,30,119.408,118.729)">
                    <path d="M0.268,-0.238L0.037,-0.644L0.178,-0.644L0.336,-0.353L0.494,-0.644L0.634,-0.644L0.403,-0.238L0.403,-0L0.268,-0L0.268,-0.238Z" style="fill:white;fill-rule:nonzero;"/>
                </g>
                <g transform="matrix(30,0,0,30,137.888,118.729)">
                    <path d="M0.283,-0.644L0.431,-0.644L0.676,-0L0.536,-0L0.475,-0.155L0.238,-0.155L0.178,-0L0.037,-0L0.283,-0.644ZM0.455,-0.259L0.356,-0.518L0.258,-0.259L0.455,-0.259Z" style="fill:white;fill-rule:nonzero;"/>
                </g>
                <g transform="matrix(30,0,0,30,160.328,118.729)">
                    <path d="M0.057,-0.644L0.193,-0.644L0.382,-0.257L0.571,-0.644L0.706,-0.644L0.706,-0L0.571,-0L0.571,-0.419L0.421,-0.111L0.343,-0.111L0.192,-0.419L0.192,-0L0.057,-0L0.057,-0.644Z" style="fill:white;fill-rule:nonzero;"/>
                </g>
                <g transform="matrix(30,0,0,30,185.018,118.729)">
                    <path d="M0.057,-0.644L0.192,-0.644L0.192,-0.104L0.509,-0.104L0.509,-0L0.057,-0L0.057,-0.644Z" style="fill:white;fill-rule:nonzero;"/>
                </g>
            </g>
        </g>
        <g id="grade" transform="matrix(1,0,0,1,196.759,368.681)">
            <g transform="matrix(125.177,0,0,124.724,112.202,126.241)">
                <path d="M0.283,-0.644L0.431,-0.644L0.676,-0L0.536,-0L0.475,-0.155L0.238,-0.155L0.178,-0L0.037,-0L0.283,-0.644ZM0.455,-0.259L0.356,-0.518L0.258,-0.259L0.455,-0.259Z" style="fill:rgb(10,123,192);fill-rule:nonzero;"/>
            </g>
            <g transform="matrix(125.177,0,0,124.724,201.448,126.241)">
                <path d="M0.182,-0.219L0.042,-0.219L0.042,-0.324L0.182,-0.324L0.182,-0.461L0.288,-0.461L0.288,-0.324L0.428,-0.324L0.428,-0.219L0.288,-0.219L0.288,-0.085L0.182,-0.085L0.182,-0.219Z" style="fill:rgb(10,123,192);fill-rule:nonzero;"/>
            </g>
        </g>
    </g>
    <defs>
        <linearGradient id="_Linear1" x1="0" y1="0" x2="1" y2="0" gradientUnits="userSpaceOnUse" gradientTransform="matrix(1,0,0,1,0,-1.26553e-06)"><stop offset="0" style="stop-color:rgb(176,209,230);stop-opacity:1"/><stop offset="0" style="stop-color:rgb(176,209,230);stop-opacity:1"/><stop offset="1" style="stop-color:rgb(242,250,255);stop-opacity:1"/></linearGradient>
        <linearGradient id="_Linear2" x1="0" y1="0" x2="1" y2="0" gradientUnits="userSpaceOnUse" gradientTransform="matrix(1,0,0,1,0,-3.68051e-06)"><stop offset="0" style="stop-color:rgb(192,10,95);stop-opacity:1"/><stop offset="0.99" style="stop-color:rgb(238,131,179);stop-opacity:1"/><stop offset="1" style="stop-color:rgb(238,131,179);stop-opacity:1"/></linearGradient>
    </defs>
</svg>
