<?xml version="1.0" encoding="UTF-8" standalone="no"?>
<!DOCTYPE svg PUBLIC "-//W3C//DTD SVG 1.1//EN" "http://www.w3.org/Graphics/SVG/1.1/DTD/svg11.dtd">
<svg width="100%" height="100%" viewBox="0 0 473 514" version="1.1" xmlns="http://www.w3.org/2000/svg" xmlns:xlink="http://www.w3.org/1999/xlink" xml:space="preserve" xmlns:serif="http://www.serif.com/" style="fill-rule:evenodd;clip-rule:evenodd;stroke-linejoin:round;stroke-miterlimit:2;">
    <g transform="matrix(1.4024,0,0,1.39733,375.95,3.61095e-15)">
        <path d="M0,91.622L68.717,91.622L-22.905,0L-22.905,68.717C-22.905,81.314 -12.598,91.622 0,91.622" style="fill:rgb(164,193,208);fill-rule:nonzero;"/>
    </g>
    <g transform="matrix(0,-512.101,-513.962,0,280.264,512.293)">
        <path d="M1,0.312C1,0.347 0.972,0.375 0.937,0.375L0.063,0.375C0.028,0.375 -0,0.347 -0,0.312L-0,-0.313C-0,-0.347 0.028,-0.375 0.063,-0.375L0.75,-0.375L1,-0.125L1,0.312Z" style="fill:url(#_Linear1);fill-rule:nonzero;"/>
    </g>
    <g id="big-star">
        <g transform="matrix(0.24034,-2.77556e-17,-2.77556e-17,0.23947,-30.8555,-119.101)">
            <path d="M1478.73,2636.63L1665.08,2636.63L1772.46,2579.89C1792.28,2569.58 1816.07,2569.58 1835.89,2579.89L1943.27,2636.63L1963.84,2636.63C2036.55,2636.63 2096.43,2576.75 2096.43,2501.91L2096.43,2415.53L2092.78,2394.35C2090.59,2381.65 2092.03,2369.2 2096.43,2357.92L2096.43,2043.99L2014.29,2032C1992.09,2028.83 1973.06,2014.56 1962.75,1994.74L1865.22,1797.31C1852.54,1771.93 1828.75,1759.25 1804.17,1758.45C1779.59,1759.25 1755.01,1771.14 1743.12,1797.31L1645.59,1994.74C1635.29,2014.56 1616.26,2028.83 1594.06,2032L1376.01,2062.92C1319.72,2071.64 1298.31,2140.63 1338.75,2179.48L1495.74,2333.3C1511.6,2349.16 1519.52,2371.36 1515.56,2394.35L1478.29,2610.81C1476.75,2619.83 1477,2628.52 1478.73,2636.63Z" style="fill:rgb(255,224,123);fill-rule:nonzero;stroke:black;stroke-width:17.37px;"/>
        </g>
        <g transform="matrix(1.00142,0,0,0.997791,-897.259,-1365.28)">
            <text x="1254.69px" y="1841.7px" style="font-family:'ArialRoundedMTBold', 'Arial Rounded MT Bold', sans-serif;font-size:144px;">5</text>
        </g>
    </g>
    <g transform="matrix(0,-253.685,-254.607,0,192.738,422.905)">
        <path d="M1.027,0.645C1.027,0.707 0.977,0.757 0.915,0.757L0.381,0.757C0.32,0.757 0.27,0.707 0.27,0.645L0.27,-0.645C0.27,-0.707 0.32,-0.757 0.381,-0.757L0.915,-0.757C0.977,-0.757 1.027,-0.707 1.027,-0.645L1.027,0.645Z" style="fill:url(#_Linear2);fill-rule:nonzero;"/>
    </g>
    <g transform="matrix(4.17257,0,0,4.15747,-477.15,-189.621)">
        <g transform="matrix(30,0,0,30,119.408,118.729)">
            <path d="M0.268,-0.238L0.037,-0.644L0.178,-0.644L0.336,-0.353L0.494,-0.644L0.634,-0.644L0.403,-0.238L0.403,-0L0.268,-0L0.268,-0.238Z" style="fill:white;fill-rule:nonzero;"/>
        </g>
        <g transform="matrix(30,0,0,30,137.888,118.729)">
            <path d="M0.283,-0.644L0.431,-0.644L0.676,-0L0.536,-0L0.475,-0.155L0.238,-0.155L0.178,-0L0.037,-0L0.283,-0.644ZM0.455,-0.259L0.356,-0.518L0.258,-0.259L0.455,-0.259Z" style="fill:white;fill-rule:nonzero;"/>
        </g>
        <g transform="matrix(30,0,0,30,160.328,118.729)">
            <path d="M0.057,-0.644L0.193,-0.644L0.382,-0.257L0.571,-0.644L0.706,-0.644L0.706,-0L0.571,-0L0.571,-0.419L0.421,-0.111L0.343,-0.111L0.192,-0.419L0.192,-0L0.057,-0L0.057,-0.644Z" style="fill:white;fill-rule:nonzero;"/>
        </g>
        <g transform="matrix(30,0,0,30,185.018,118.729)">
            <path d="M0.057,-0.644L0.192,-0.644L0.192,-0.104L0.509,-0.104L0.509,-0L0.057,-0L0.057,-0.644Z" style="fill:white;fill-rule:nonzero;"/>
        </g>
    </g>
    <g transform="matrix(125.177,0,0,124.724,112.202,126.241)">
        <path d="M0.283,-0.644L0.431,-0.644L0.676,-0L0.536,-0L0.475,-0.155L0.238,-0.155L0.178,-0L0.037,-0L0.283,-0.644ZM0.455,-0.259L0.356,-0.518L0.258,-0.259L0.455,-0.259Z" style="fill:rgb(10,123,192);fill-rule:nonzero;"/>
    </g>
    <g transform="matrix(125.177,0,0,124.724,201.448,126.241)">
        <path d="M0.182,-0.219L0.042,-0.219L0.042,-0.324L0.182,-0.324L0.182,-0.461L0.288,-0.461L0.288,-0.324L0.428,-0.324L0.428,-0.219L0.288,-0.219L0.288,-0.085L0.182,-0.085L0.182,-0.219Z" style="fill:rgb(10,123,192);fill-rule:nonzero;"/>
    </g>
    <defs>
        <linearGradient id="_Linear1" x1="0" y1="0" x2="1" y2="0" gradientUnits="userSpaceOnUse" gradientTransform="matrix(1,0,0,1,0,-1.26553e-06)"><stop offset="0" style="stop-color:rgb(176,209,230);stop-opacity:1"/><stop offset="0" style="stop-color:rgb(176,209,230);stop-opacity:1"/><stop offset="1" style="stop-color:rgb(242,250,255);stop-opacity:1"/></linearGradient>
        <linearGradient id="_Linear2" x1="0" y1="0" x2="1" y2="0" gradientUnits="userSpaceOnUse" gradientTransform="matrix(1,0,0,1,0,-3.68051e-06)"><stop offset="0" style="stop-color:rgb(192,10,95);stop-opacity:1"/><stop offset="0.99" style="stop-color:rgb(238,131,179);stop-opacity:1"/><stop offset="1" style="stop-color:rgb(238,131,179);stop-opacity:1"/></linearGradient>
    </defs>
</svg>
